<?xml version="1.0" encoding="UTF-8"?>
<svg preserveAspectRatio="xMidYMid slice" xmlns="http://www.w3.org/2000/svg" width="34px" height="34px" viewBox="0 0 24 24" fill="none">
  <path d="M19.2114 9.76924C18.4769 9.76749 17.7809 9.92995 17.1579 10.2213L14.0066 5.27718C13.9525 5.19227 13.8776 5.12233 13.789 5.07387C13.7004 5.02541 13.6009 5 13.4997 5H10.9498C10.7013 5 10.4998 5.2002 10.4998 5.44712V5.74519C10.4998 5.99211 10.7012 6.19231 10.9498 6.19231H13.1695L14.6895 8.57693H9.5998V7.83174C9.5998 7.58482 9.39835 7.38462 9.1498 7.38462H5.99987C5.66851 7.38462 5.39986 7.65151 5.39986 7.98078C5.39986 8.31004 5.66848 8.57693 5.99987 8.57693H8.09983L6.90703 10.2525C6.26634 9.9409 5.54566 9.76678 4.7837 9.76928C2.13514 9.77796 -3.74996e-05 11.9068 4.93952e-10 14.5385C3.75006e-05 17.1725 2.14902 19.3077 4.7999 19.3077C7.03644 19.3077 8.91572 17.7878 9.44856 15.7308H11.3997C11.4962 15.7308 11.5912 15.7077 11.6768 15.6634C11.7624 15.6192 11.8359 15.5551 11.8912 15.4765L15.6692 10.114L16.1445 10.8598C15.0801 11.7335 14.4013 13.0545 14.3996 14.5332C14.3967 17.14 16.5312 19.2837 19.1547 19.3075C21.8006 19.3315 23.9585 17.2269 23.9994 14.613C24.0406 11.9861 21.8555 9.77562 19.2114 9.76924V9.76924ZM4.7999 18.1154C2.81491 18.1154 1.19997 16.5108 1.19997 14.5385C1.19997 12.5661 2.81487 10.9616 4.7999 10.9616C5.29891 10.9616 5.77449 11.0631 6.20694 11.2462L3.70838 14.7927C3.43013 15.1877 3.71562 15.7308 4.1999 15.7308H8.19388C7.69862 17.1186 6.36433 18.1154 4.7999 18.1154V18.1154ZM8.39983 14.5385H5.35228L7.21768 11.8906C7.94346 12.5455 8.39983 13.49 8.39983 14.5385ZM11.0874 14.5385H9.5998C9.5998 13.0839 8.94419 11.7816 7.9108 10.9068L8.71221 9.76924H14.4473L11.0874 14.5385ZM19.0574 18.1127C17.1802 18.0405 15.6626 16.5226 15.6016 14.657C15.5656 13.5552 16.0341 12.5591 16.7945 11.8794L18.773 14.9834C18.9059 15.192 19.1839 15.254 19.3939 15.1219L19.6473 14.9624C19.8573 14.8302 19.9197 14.554 19.7867 14.3454L17.8073 11.24C18.2358 11.0607 18.7062 10.9615 19.1996 10.9615C21.1846 10.9615 22.7995 12.5661 22.7995 14.5384C22.7995 16.5577 21.1069 18.1915 19.0574 18.1127V18.1127Z" fill="currentColor"></path>
</svg>
