<?xml version="1.0" encoding="UTF-8"?>
<svg preserveAspectRatio="xMidYMid slice" xmlns="http://www.w3.org/2000/svg" width="34px" height="34px" viewBox="0 0 24 24" fill="none">
  <path d="M4.95 15.6985H3.45C3.20175 15.6985 3 15.8984 3 16.1452V17.6342C3 17.881 3.20175 18.0809 3.45 18.0809H4.95C5.19825 18.0809 5.4 17.881 5.4 17.6342V16.1452C5.4 15.8984 5.19825 15.6985 4.95 15.6985ZM4.95 12.125H3.45C3.20175 12.125 3 12.3249 3 12.5717V14.0607C3 14.3075 3.20175 14.5074 3.45 14.5074H4.95C5.19825 14.5074 5.4 14.3075 5.4 14.0607V12.5717C5.4 12.3249 5.19825 12.125 4.95 12.125ZM4.95 8.55147H3.45C3.20175 8.55147 3 8.75137 3 8.99816V10.4871C3 10.7339 3.20175 10.9338 3.45 10.9338H4.95C5.19825 10.9338 5.4 10.7339 5.4 10.4871V8.99816C5.4 8.75137 5.19825 8.55147 4.95 8.55147ZM8.55 15.6985H7.05C6.80175 15.6985 6.6 15.8984 6.6 16.1452V17.6342C6.6 17.881 6.80175 18.0809 7.05 18.0809H8.55C8.79825 18.0809 9 17.881 9 17.6342V16.1452C9 15.8984 8.79825 15.6985 8.55 15.6985ZM8.55 12.125H7.05C6.80175 12.125 6.6 12.3249 6.6 12.5717V14.0607C6.6 14.3075 6.80175 14.5074 7.05 14.5074H8.55C8.79825 14.5074 9 14.3075 9 14.0607V12.5717C9 12.3249 8.79825 12.125 8.55 12.125ZM8.55 8.55147H7.05C6.80175 8.55147 6.6 8.75137 6.6 8.99816V10.4871C6.6 10.7339 6.80175 10.9338 7.05 10.9338H8.55C8.79825 10.9338 9 10.7339 9 10.4871V8.99816C9 8.75137 8.79825 8.55147 8.55 8.55147ZM15.75 12.125H14.25C14.0018 12.125 13.8 12.3249 13.8 12.5717V14.0607C13.8 14.3075 14.0018 14.5074 14.25 14.5074H15.75C15.9983 14.5074 16.2 14.3075 16.2 14.0607V12.5717C16.2 12.3249 15.9983 12.125 15.75 12.125ZM15.75 8.55147H14.25C14.0018 8.55147 13.8 8.75137 13.8 8.99816V10.4871C13.8 10.7339 14.0018 10.9338 14.25 10.9338H15.75C15.9983 10.9338 16.2 10.7339 16.2 10.4871V8.99816C16.2 8.75137 15.9983 8.55147 15.75 8.55147ZM15.75 4.97794H14.25C14.0018 4.97794 13.8 5.17784 13.8 5.42463V6.9136C13.8 7.1604 14.0018 7.3603 14.25 7.3603H15.75C15.9983 7.3603 16.2 7.1604 16.2 6.9136V5.42463C16.2 5.17784 15.9983 4.97794 15.75 4.97794ZM20.55 15.6985H19.05C18.8018 15.6985 18.6 15.8984 18.6 16.1452V17.6342C18.6 17.881 18.8018 18.0809 19.05 18.0809H20.55C20.7983 18.0809 21 17.881 21 17.6342V16.1452C21 15.8984 20.7983 15.6985 20.55 15.6985ZM20.55 12.125H19.05C18.8018 12.125 18.6 12.3249 18.6 12.5717V14.0607C18.6 14.3075 18.8018 14.5074 19.05 14.5074H20.55C20.7983 14.5074 21 14.3075 21 14.0607V12.5717C21 12.3249 20.7983 12.125 20.55 12.125ZM23.1 9.14706H19.2V2.89338C19.2 2.39979 18.7969 2 18.3 2H11.7C11.2031 2 10.8 2.39979 10.8 2.89338V5.57353H8.4V2.29779C8.4 2.13326 8.26575 2 8.1 2H7.5C7.33425 2 7.2 2.13326 7.2 2.29779V5.57353H4.8V2.29779C4.8 2.13326 4.66575 2 4.5 2H3.9C3.73425 2 3.6 2.13326 3.6 2.29779V5.57353H0.9C0.403125 5.57353 0 5.97332 0 6.46691V20.761C0 20.9256 0.13425 21.0588 0.3 21.0588H0.9C1.06575 21.0588 1.2 20.9256 1.2 20.761V6.76471H12V3.19118H18V10.3382H22.8V20.761C22.8 20.9256 22.9343 21.0588 23.1 21.0588H23.7C23.8658 21.0588 24 20.9256 24 20.761V10.0404C24 9.54685 23.5969 9.14706 23.1 9.14706Z" fill="currentColor"></path>
</svg>
