<svg width="164" height="27" viewBox="0 0 164 27" fill="none" xmlns="http://www.w3.org/2000/svg">
<path d="M6.166 20.315C9.085 20.315 10.975 18.803 10.975 16.031C10.975 14.75 10.513 13.616 9.148 12.377L7.069 10.508C6.355 9.857 5.977 9.416 5.977 8.828C5.977 8.219 6.376 7.631 7.447 7.631C8.455 7.631 9.61 8.156 10.576 8.807L12.088 6.434C10.555 5.489 9.064 4.985 7.489 4.985C4.696 4.985 3.1 6.581 3.1 8.849C3.1 10.235 3.709 11.369 4.822 12.377L6.943 14.309C7.825 15.107 8.035 15.632 8.035 16.136C8.035 17.039 7.363 17.648 6.166 17.648C4.927 17.648 3.52 16.976 2.26 15.947L0.643 18.215C2.134 19.496 4.024 20.315 6.166 20.315ZM19.5976 5.3H15.1456L12.2896 20H14.9776L16.0276 14.561H18.2326C22.3486 14.561 24.4486 12.335 24.4486 9.5C24.4486 7.169 22.8946 5.3 19.5976 5.3ZM18.6736 12.083H16.5106L17.3506 7.778H19.2826C20.6266 7.778 21.5506 8.345 21.5506 9.668C21.5506 11.201 20.4166 12.083 18.6736 12.083ZM32.4313 20.315C37.5133 20.315 40.9363 16.577 40.9363 11.957C40.9363 7.694 37.9123 4.985 33.6073 4.985C28.5253 4.985 25.1233 8.723 25.1233 13.343C25.1233 17.606 28.1263 20.315 32.4313 20.315ZM32.5573 17.627C29.9953 17.627 27.9793 16.094 27.9793 13.364C27.9793 10.382 29.8903 7.673 33.4813 7.673C36.0433 7.673 38.0593 9.206 38.0593 11.936C38.0593 14.918 36.1483 17.627 32.5573 17.627ZM56.2758 5.3H52.4748L45.7968 11.852L47.0778 5.3H44.3898L41.5338 20H44.2218L45.6288 12.776L50.6688 20H54.1968L48.4848 12.461L56.2758 5.3ZM66.2595 7.778L66.7425 5.3H58.0275L55.1715 20H63.9705L64.4535 17.522H58.3425L59.1825 13.238H64.6635L65.1465 10.76H59.6655L60.2325 7.778H66.2595ZM106.83 20.315C108.762 20.315 110.4 19.748 111.891 18.824L110.61 16.493C109.476 17.165 108.3 17.606 106.956 17.606C104.331 17.606 102.63 15.926 102.63 13.217C102.63 10.151 104.73 7.694 108.258 7.694C109.896 7.694 111.051 8.261 112.038 8.912L113.676 6.581C112.269 5.573 110.505 4.985 108.342 4.985C103.092 4.985 99.6897 8.597 99.6897 13.238C99.6897 17.501 102.525 20.315 106.83 20.315ZM125.95 5.3L124.837 11.012H117.886L118.999 5.3H116.311L113.455 20H116.143L117.382 13.553H124.354L123.094 20H125.782L128.638 5.3H125.95ZM138.861 20H141.654L138.63 5.3H135.816L127.143 20H130.272L132.141 16.64H138.273L138.861 20ZM133.464 14.267L136.782 8.366L137.832 14.267H133.464ZM143.027 20H145.736L148.592 5.3H145.883L143.027 20ZM148.503 20H151.191L153.165 9.731H153.186L158.268 20H160.767L163.623 5.3H160.935L158.982 15.569H158.94L153.837 5.3H151.359L148.503 20Z" fill="fillCurrent"/>
<path fill-rule="evenodd" clip-rule="evenodd" d="M76.9167 2.57024C78.7175 2.04189 80.7229 2.43638 82.1635 3.60357C82.234 3.65839 82.494 3.93952 82.7424 4.23098C83.3919 4.98301 83.4646 5.13339 84.5294 7.87798C85.5969 10.6485 86.5283 11.6755 89.1722 13.0267C91.6343 14.284 91.9214 14.4639 92.5992 15.1625C93.3464 15.9306 93.7723 16.7517 93.9991 17.8771C94.1512 18.6106 94.081 19.9477 93.8532 20.6611C93.6512 21.3026 93.3728 21.8595 92.9904 22.378C92.5999 22.9106 91.7752 23.6184 91.2068 23.9073C89.7049 24.6748 88.0009 24.754 86.4252 24.1328C85.7075 23.8462 85.2389 23.5579 84.7113 23.0722C83.9601 22.3773 83.5784 21.6906 82.8196 19.6725C81.9058 17.2581 81.4914 16.4965 80.6106 15.6186C79.8661 14.8689 79.2315 14.4655 77.2396 13.4673C75.166 12.4245 74.7382 12.1274 74.0939 11.2804C73.33 10.2696 72.9614 9.05594 73.0033 7.69535C73.0838 5.24886 74.6138 3.24451 76.9167 2.57024ZM90.3719 16.841C90.0307 16.5703 89.7053 16.4176 89.2426 16.2983C88.4581 16.0995 87.5936 16.2375 86.9334 16.6717C85.7459 17.4484 85.393 19.2909 86.1986 20.5567C86.7468 21.4207 87.8539 21.8926 88.965 21.7347C89.5668 21.6453 89.9944 21.4553 90.4213 21.0709C90.7981 20.7317 91.0778 20.2847 91.2136 19.7936C91.3093 19.4361 91.3335 18.6973 91.2598 18.3527C91.1392 17.7859 90.7691 17.1583 90.3719 16.841ZM80.3527 5.72115C79.5699 5.06835 78.1483 4.93517 77.203 5.42422C75.4709 6.3227 75.2641 9.008 76.8358 10.1272C77.3305 10.4755 77.7551 10.6223 78.3906 10.6556C79.6985 10.7241 80.6525 10.1365 81.1275 8.97101C81.578 7.8552 81.2511 6.4717 80.3527 5.72115Z" fill="#DC331B"/>
</svg>
