<?xml version="1.0" encoding="UTF-8"?>
<svg width="22px" height="22px" viewBox="0 0 22 22" xmlns="http://www.w3.org/2000/svg" xmlns:xlink="http://www.w3.org/1999/xlink" version="1.1">
 <!-- Generated by Pixelmator Pro 2.1.2 -->
 <path id="Path-1" d="M4.716 0.558 C6.424 0.057 8.327 0.431 9.694 1.539 9.761 1.59 10.008 1.858 10.243 2.134 10.86 2.848 10.929 2.99 11.938 5.594 12.952 8.223 13.835 9.197 16.343 10.479 18.679 11.672 18.952 11.843 19.595 12.506 20.304 13.235 20.708 14.014 20.923 15.081 21.067 15.777 21.001 17.046 20.785 17.722 20.593 18.331 20.329 18.86 19.966 19.351 19.596 19.857 18.813 20.528 18.274 20.802 16.849 21.531 15.232 21.606 13.737 21.016 13.056 20.744 12.612 20.471 12.111 20.01 11.398 19.35 11.036 18.7 10.317 16.785 9.45 14.494 9.056 13.772 8.221 12.939 7.514 12.227 6.912 11.844 5.023 10.897 3.055 9.908 2.649 9.626 2.038 8.822 1.313 7.864 0.963 6.712 1.003 5.421 1.08 3.1 2.531 1.199 4.716 0.558 Z M17.482 14.098 C17.158 13.841 16.849 13.697 16.411 13.583 15.666 13.395 14.846 13.525 14.219 13.938 13.093 14.674 12.758 16.422 13.523 17.624 14.043 18.443 15.093 18.891 16.147 18.741 16.718 18.656 17.123 18.476 17.528 18.111 17.886 17.79 18.152 17.366 18.281 16.9 18.371 16.56 18.395 15.859 18.324 15.533 18.21 14.995 17.859 14.399 17.482 14.098 Z M7.976 3.548 C7.233 2.928 5.884 2.802 4.988 3.266 3.344 4.119 3.148 6.666 4.639 7.728 5.108 8.059 5.511 8.198 6.115 8.23 7.356 8.294 8.26 7.737 8.712 6.631 9.138 5.572 8.828 4.26 7.976 3.548 Z" fill="#dc331b" fill-opacity="1" stroke="none"/>
</svg>
