<?xml version="1.0" encoding="UTF-8"?>
<svg preserveAspectRatio="xMidYMid slice" xmlns="http://www.w3.org/2000/svg" width="34px" height="34px" viewBox="0 0 24 24" fill="none">
  <g clip-path="url(#clip0)">
    <path d="M23.8534 17.034L21.0739 13.7315H22.2001C22.4333 13.7315 22.6467 13.5922 22.7438 13.3737C22.8421 13.1552 22.8094 12.8981 22.6583 12.7147L19.9396 9.40607H21.0001C21.2367 9.40607 21.4512 9.26247 21.5483 9.03973C21.6443 8.8166 21.6046 8.55642 21.4463 8.3746L16.0463 2.19543C15.8168 1.93486 15.3829 1.93486 15.1534 2.19543L12.0001 5.80403L8.84668 2.19543C8.61718 1.93486 8.18331 1.93486 7.95381 2.19543L2.55381 8.3746C2.47637 8.46357 2.42554 8.57367 2.40744 8.69167C2.38935 8.80966 2.40476 8.93053 2.45181 9.03973C2.54894 9.26247 2.76344 9.40607 3.00006 9.40607H4.06056L1.34181 12.7147C1.19069 12.8981 1.15769 13.1552 1.25631 13.3737C1.35344 13.5922 1.56681 13.7315 1.80006 13.7315H2.92619L0.146687 17.034C-0.00668771 17.217 -0.0430627 17.4756 0.0540623 17.6953C0.152312 17.9157 0.365687 18.0566 0.600062 18.0566H6.60006V19.0008L5.69256 20.87C5.49306 21.2807 5.78331 21.7644 6.22918 21.7644H10.5709C11.0168 21.7644 11.3071 21.2811 11.1076 20.87L10.2001 19.0008V18.0566H13.8001V19.0008L12.8926 20.87C12.6931 21.2807 12.9833 21.7644 13.4292 21.7644H17.7709C18.2168 21.7644 18.5071 21.2811 18.3076 20.87L17.4001 19.0008V18.0566H23.4001C23.6344 18.0566 23.8478 17.9153 23.9461 17.6953C24.0436 17.4756 24.0072 17.217 23.8534 17.034V17.034ZM7.20006 20.5284L7.80006 19.2927V18.0566H9.00006V19.2927L9.60006 20.5284H7.20006ZM1.90431 16.8232L5.50431 12.4997H3.09381L6.64806 8.17618H4.34781L8.40006 3.54074L12.4523 8.17618H10.1521L13.7063 12.4997H11.2958L14.8958 16.8232H1.90431ZM14.4001 20.5284L15.0001 19.2927V18.0566H16.2001V19.2927L16.8001 20.5284H14.4001ZM16.4761 16.8232L13.8739 13.7311H15.0001C15.2333 13.7311 15.4467 13.5918 15.5438 13.3733C15.6421 13.1548 15.6094 12.8977 15.4583 12.7143L12.7396 9.40569H13.8001C14.0367 9.40569 14.2512 9.26208 14.3483 9.03934C14.4443 8.81622 14.4046 8.55603 14.2463 8.37421L12.8104 6.73127L15.6001 3.54074L19.6523 8.17618H17.3521L20.9063 12.4997H18.4958L22.0958 16.8232H16.4761Z" fill="currentColor"></path>
  </g>
  <defs>
    <clipPath id="clip0">
      <rect width="24" height="24" fill="white"></rect>
    </clipPath>
  </defs>
</svg>
