<?xml version="1.0" encoding="UTF-8"?>
<svg preserveAspectRatio="xMidYMid slice" xmlns="http://www.w3.org/2000/svg" width="68px" height="68px" viewBox="0 0 24 24" fill="none">
  <path d="M17.1004 7.9375H12.7729L14.3704 3.1207C14.5204 2.55664 14.0891 2 13.5004 2H8.1004C7.6504 2 7.2679 2.33027 7.2079 2.77187L6.0079 11.6781C5.93665 12.2125 6.35665 12.6875 6.9004 12.6875H11.3516L9.6229 19.9053C9.4879 20.4693 9.9229 21 10.4966 21C10.8079 21 11.1116 20.8367 11.2766 20.5547L17.8766 9.27344C18.2254 8.6834 17.7941 7.9375 17.1004 7.9375ZM11.2616 18.2131L12.5179 12.9584L12.8666 11.4963H7.24165L8.3629 3.1875H13.0841L11.6329 7.56641L11.1154 9.125H16.5791L11.2616 18.2131Z" fill="currentColor"></path>
</svg>
