<?xml version="1.0" encoding="UTF-8"?>
<svg preserveAspectRatio="xMidYMid slice" xmlns="http://www.w3.org/2000/svg" width="68px" height="68px" viewBox="0 0 24 24" fill="none">
  <g clip-path="url(#clip0)">
    <path d="M23.8399 17.2918L16.5634 6.62416C16.3462 6.30621 15.9731 6.14706 15.6 6.14706C15.2269 6.14706 14.8537 6.30621 14.6366 6.62416L12.6866 9.48321L10.032 5.52048C9.79948 5.17349 9.39973 5 8.99998 5C8.60023 5 8.20048 5.17349 7.96798 5.52048L0.171729 17.1581C-0.299646 17.8618 0.255354 18.7647 1.15948 18.7647H22.9177C23.7615 18.7647 24.2797 17.937 23.8399 17.2918V17.2918ZM1.2641 17.6542L8.9636 6.15315C8.9666 6.15172 8.9801 6.14706 8.99998 6.14706L9.02135 6.13917L16.7111 17.6176L1.2641 17.6542V17.6542ZM17.9869 17.6176C17.9722 17.4624 17.9276 17.3058 17.8286 17.1581L13.3965 10.5424L15.6 7.3124L22.6294 17.6176H17.9869V17.6176Z" fill="currentColor"></path>
  </g>
  <defs>
    <clipPath id="clip0">
      <rect width="24" height="24" fill="white"></rect>
    </clipPath>
  </defs>
</svg>
