<?xml version="1.0" encoding="UTF-8"?>
<svg width="164px" height="27px" viewBox="0 0 164 27" xmlns="http://www.w3.org/2000/svg" xmlns:xlink="http://www.w3.org/1999/xlink" version="1.1">
 <!-- Generated by Pixelmator Pro 2.1.2 -->
 <path id="Path" d="M6.166 20.315 C9.085 20.315 10.975 18.803 10.975 16.031 10.975 14.75 10.513 13.616 9.148 12.377 L7.069 10.508 C6.355 9.857 5.977 9.416 5.977 8.828 5.977 8.219 6.376 7.631 7.447 7.631 8.455 7.631 9.61 8.156 10.576 8.807 L12.088 6.434 C10.555 5.489 9.064 4.985 7.489 4.985 4.696 4.985 3.1 6.581 3.1 8.849 3.1 10.235 3.709 11.369 4.822 12.377 L6.943 14.309 C7.825 15.107 8.035 15.632 8.035 16.136 8.035 17.039 7.363 17.648 6.166 17.648 4.927 17.648 3.52 16.976 2.26 15.947 L0.643 18.215 C2.134 19.496 4.024 20.315 6.166 20.315 Z M19.598 5.3 L15.146 5.3 12.29 20 14.978 20 16.028 14.561 18.233 14.561 C22.349 14.561 24.449 12.335 24.449 9.5 24.449 7.169 22.895 5.3 19.598 5.3 Z M18.674 12.083 L16.511 12.083 17.351 7.778 19.283 7.778 C20.627 7.778 21.551 8.345 21.551 9.668 21.551 11.201 20.417 12.083 18.674 12.083 Z M32.431 20.315 C37.513 20.315 40.936 16.577 40.936 11.957 40.936 7.694 37.912 4.985 33.607 4.985 28.525 4.985 25.123 8.723 25.123 13.343 25.123 17.606 28.126 20.315 32.431 20.315 Z M32.557 17.627 C29.995 17.627 27.979 16.094 27.979 13.364 27.979 10.382 29.89 7.673 33.481 7.673 36.043 7.673 38.059 9.206 38.059 11.936 38.059 14.918 36.148 17.627 32.557 17.627 Z M56.276 5.3 L52.475 5.3 45.797 11.852 47.078 5.3 44.39 5.3 41.534 20 44.222 20 45.629 12.776 50.669 20 54.197 20 48.485 12.461 56.276 5.3 Z M66.259 7.778 L66.743 5.3 58.028 5.3 55.172 20 63.971 20 64.453 17.522 58.342 17.522 59.182 13.238 64.663 13.238 65.146 10.76 59.666 10.76 60.232 7.778 66.259 7.778 Z M106.83 20.315 C108.762 20.315 110.4 19.748 111.891 18.824 L110.61 16.493 C109.476 17.165 108.3 17.606 106.956 17.606 104.331 17.606 102.63 15.926 102.63 13.217 102.63 10.151 104.73 7.694 108.258 7.694 109.896 7.694 111.051 8.261 112.038 8.912 L113.676 6.581 C112.269 5.573 110.505 4.985 108.342 4.985 103.092 4.985 99.69 8.597 99.69 13.238 99.69 17.501 102.525 20.315 106.83 20.315 Z M125.95 5.3 L124.837 11.012 117.886 11.012 118.999 5.3 116.311 5.3 113.455 20 116.143 20 117.382 13.553 124.354 13.553 123.094 20 125.782 20 128.638 5.3 125.95 5.3 Z M138.861 20 L141.654 20 138.63 5.3 135.816 5.3 127.143 20 130.272 20 132.141 16.64 138.273 16.64 138.861 20 Z M133.464 14.267 L136.782 8.366 137.832 14.267 133.464 14.267 Z M143.027 20 L145.736 20 148.592 5.3 145.883 5.3 143.027 20 Z M148.503 20 L151.191 20 153.165 9.731 153.186 9.731 158.268 20 160.767 20 163.623 5.3 160.935 5.3 158.982 15.569 158.94 15.569 153.837 5.3 151.359 5.3 148.503 20 Z" fill="#000000" fill-opacity="1" stroke="none"/>
 <path id="Path-1" d="M76.917 2.57 C78.717 2.042 80.723 2.436 82.163 3.604 82.234 3.658 82.494 3.94 82.742 4.231 83.392 4.983 83.465 5.133 84.529 7.878 85.597 10.649 86.528 11.675 89.172 13.027 91.634 14.284 91.921 14.464 92.599 15.163 93.346 15.931 93.772 16.752 93.999 17.877 94.151 18.611 94.081 19.948 93.853 20.661 93.651 21.303 93.373 21.86 92.99 22.378 92.6 22.911 91.775 23.618 91.207 23.907 89.705 24.675 88.001 24.754 86.425 24.133 85.707 23.846 85.239 23.558 84.711 23.072 83.96 22.377 83.578 21.691 82.82 19.673 81.906 17.258 81.491 16.497 80.611 15.619 79.866 14.869 79.231 14.465 77.24 13.467 75.166 12.425 74.738 12.127 74.094 11.28 73.33 10.27 72.961 9.056 73.003 7.695 73.084 5.249 74.614 3.245 76.917 2.57 Z M90.372 16.841 C90.031 16.57 89.705 16.418 89.243 16.298 88.458 16.1 87.594 16.237 86.933 16.672 85.746 17.448 85.393 19.291 86.199 20.557 86.747 21.421 87.854 21.893 88.965 21.735 89.567 21.645 89.994 21.455 90.421 21.071 90.798 20.732 91.078 20.285 91.214 19.794 91.309 19.436 91.334 18.697 91.26 18.353 91.139 17.786 90.769 17.158 90.372 16.841 Z M80.353 5.721 C79.57 5.068 78.148 4.935 77.203 5.424 75.471 6.323 75.264 9.008 76.836 10.127 77.33 10.476 77.755 10.622 78.391 10.656 79.699 10.724 80.652 10.137 81.128 8.971 81.578 7.855 81.251 6.472 80.353 5.721 Z" fill="#dc331b" fill-opacity="1" stroke="none"/>
</svg>
